General
=======
Complete name : A Perfect Stranger (1994) Michael Miller.flv
Format : Flash Video
File size : 342 MiB
Duration : 1h 27mn
Overall bit rate : 545 Kbps
httphostheader :

Video
=====
Format : AVC
Format/Info : Advanced Video Codec
Format profile : Main@L3.0
Format settings, CABAC : Yes
Format settings, ReFrames : 3 frames
Format settings, GOP : M=1, N=50
Codec ID : 7
Duration : 1h 27mn
Bit rate : 408 Kbps
Width : 622 pixels
Height : 480 pixels
Display aspect ratio : 1.296
Frame rate mode : Constant
Frame rate : 25.000 fps
Color space : YUV
Chroma subsampling : 4:2:0
Bit depth : 8 bits
Scan type : Progressive
Bits/(Pixel*Frame) : 0.055
Stream size : 256 MiB (75%)

Audio
=====
Format : AAC
Format/Info : Advanced Audio Codec
Format profile : LC
Codec ID : 10
Duration : 1h 27mn
Bit rate : 129 Kbps
Channel(s) : 2 channels
Channel positions : Front: L R
Sampling rate : 44.1 KHz
Compression mode : Lossy
Stream size : 80.6 MiB (24%)